<svg width="74" height="24" viewBox="0 0 74 24" fill="none" xmlns="http://www.w3.org/2000/svg">
<path d="M10 7L9.48415 8.39405C8.80774 10.222 8.46953 11.136 7.80278 11.8028C7.13603 12.4695 6.22204 12.8077 4.39405 13.4842L3 14L4.39405 14.5158C6.22204 15.1923 7.13603 15.5305 7.80278 16.1972C8.46953 16.864 8.80774 17.778 9.48415 19.6059L10 21L10.5158 19.6059C11.1923 17.778 11.5305 16.864 12.1972 16.1972C12.864 15.5305 13.778 15.1923 15.6059 14.5158L17 14L15.6059 13.4842C13.778 12.8077 12.864 12.4695 12.1972 11.8028C11.5305 11.136 11.1923 10.222 10.5158 8.39405L10 7Z" fill="#1BB425"/>
<path d="M18 3L17.7789 3.59745C17.489 4.38087 17.3441 4.77259 17.0583 5.05833C16.7726 5.34408 16.3809 5.48903 15.5975 5.77892L15 6L15.5975 6.22108C16.3809 6.51097 16.7726 6.65592 17.0583 6.94167C17.3441 7.22741 17.489 7.61913 17.7789 8.40255L18 9L18.2211 8.40255C18.511 7.61913 18.6559 7.22741 18.9417 6.94166C19.2274 6.65592 19.6191 6.51097 20.4025 6.22108L21 6L20.4025 5.77892C19.6191 5.48903 19.2274 5.34408 18.9417 5.05833C18.6559 4.77259 18.511 4.38087 18.2211 3.59745L18 3Z" fill="#1BB425"/>
<path d="M35.76 11.808L33.696 12.096C33.52 11.264 32.848 10.832 32.016 10.832C31.216 10.832 30.64 11.184 30.64 11.824C30.64 12.448 31.264 12.608 32.128 12.768L32.992 12.896C34.512 13.152 35.984 13.6 35.984 15.504C35.984 17.344 34.304 18.208 32.096 18.208C29.872 18.208 28.352 17.184 28.064 15.536L30.16 15.248C30.352 16.256 31.072 16.72 32.112 16.72C33.072 16.72 33.696 16.304 33.696 15.584C33.696 14.992 33.072 14.752 32.112 14.592L31.184 14.448C29.824 14.224 28.384 13.744 28.384 11.92C28.384 10.304 30.032 9.344 32.016 9.344C33.984 9.344 35.488 10.336 35.76 11.808ZM42.6557 16.88H42.5917C42.0157 17.696 41.1197 18.208 39.9037 18.208C38.2877 18.208 36.9277 17.264 36.9277 15.12V9.536H39.1677V14.544C39.1677 15.904 39.7277 16.4 40.7517 16.4C41.6797 16.4 42.5597 15.664 42.5597 14.144V9.536H44.7837V18H42.6557V16.88ZM50.7996 9.344C52.9116 9.344 54.4796 11.056 54.4796 13.776C54.4796 16.496 52.9116 18.208 50.7516 18.208C49.6476 18.208 48.6716 17.792 48.1596 16.896H48.0956V18.016H45.9516V6.432H48.1916V10.528H48.2556C48.7356 9.792 49.5996 9.344 50.7996 9.344ZM50.1276 16.496C51.3916 16.496 52.2076 15.552 52.2076 13.776C52.2076 12 51.3916 11.056 50.1276 11.056C48.8796 11.056 48.0636 12 48.0636 13.776C48.0636 15.552 48.8796 16.496 50.1276 16.496ZM55.8111 14.416V12.496H60.7551V14.416H55.8111ZM70.1042 18H67.8962C67.7522 17.84 67.6402 17.408 67.6402 16.832C67.1602 17.744 65.9922 18.208 64.8402 18.208C63.3682 18.208 62.0242 17.264 62.0242 15.696C62.0242 13.872 63.3202 13.2 65.5442 12.928C67.2082 12.736 67.6402 12.48 67.6402 11.984C67.6402 11.344 67.1762 10.944 66.1522 10.944C65.3842 10.944 64.6802 11.344 64.4242 12.192L62.3442 11.888C62.7282 10.288 64.2162 9.344 66.2162 9.344C68.7762 9.344 69.8802 10.464 69.8802 12.08V16.304C69.8802 17.184 69.8962 17.664 70.1042 18ZM67.6402 14.72V13.84C67.3682 14.064 66.6162 14.176 65.8002 14.288C64.9842 14.416 64.3122 14.8 64.3122 15.584C64.3122 16.272 64.7762 16.656 65.5282 16.656C66.4402 16.656 67.6402 16.112 67.6402 14.72ZM71.0549 6.416H73.2949V8.352H71.0549V6.416ZM71.0549 9.536H73.2949V18H71.0549V9.536Z" fill="#1BB425"/>
</svg>
