<svg width="20" height="20" viewBox="0 0 20 20" fill="none" xmlns="http://www.w3.org/2000/svg">
<g clip-path="url(#clip0_1597_11430)">
<path fill-rule="evenodd" clip-rule="evenodd" d="M7.49935 1.66699C7.05732 1.66699 6.6334 1.84259 6.32084 2.15515C6.00828 2.46771 5.83268 2.89163 5.83268 3.33366V5.00033H7.49935V3.33366H16.666V12.5003H14.9993V14.167H16.666C17.108 14.167 17.532 13.9914 17.8445 13.6788C18.1571 13.3663 18.3327 12.9424 18.3327 12.5003V3.33366C18.3327 2.89163 18.1571 2.46771 17.8445 2.15515C17.532 1.84259 17.108 1.66699 16.666 1.66699H7.49935ZM3.33268 5.83366C2.89065 5.83366 2.46673 6.00925 2.15417 6.32181C1.84161 6.63437 1.66602 7.0583 1.66602 7.50033V16.667C1.66602 17.109 1.84161 17.5329 2.15417 17.8455C2.46673 18.1581 2.89065 18.3337 3.33268 18.3337H12.4993C12.9414 18.3337 13.3653 18.1581 13.6779 17.8455C13.9904 17.5329 14.166 17.109 14.166 16.667V7.50033C14.166 7.0583 13.9904 6.63437 13.6779 6.32181C13.3653 6.00925 12.9414 5.83366 12.4993 5.83366H3.33268ZM3.33268 7.50033H12.4993V16.667H3.33268V7.50033Z" fill="#667185"/>
</g>
<defs>
<clipPath id="clip0_1597_11430">
<rect width="20" height="20" fill="white"/>
</clipPath>
</defs>
</svg>
