<svg width="78" height="78" viewBox="0 0 78 78" fill="none" xmlns="http://www.w3.org/2000/svg">
<g filter="url(#filter0_d_591_9761)">
<g clip-path="url(#clip0_591_9761)">
<rect x="4" width="70" height="70" rx="35" fill="url(#paint0_linear_591_9761)" shape-rendering="crispEdges"/>
<g filter="url(#filter1_f_591_9761)">
<path d="M58 2.18359L65.9258 15.5L14.9258 64L12.7833 62.6089L58 2.18359Z" fill="white" fill-opacity="0.1"/>
</g>
<path d="M35.8333 27.0833L35.0166 29.2906C33.9456 32.1848 33.4101 33.632 32.3544 34.6878C31.2987 35.7434 29.8516 36.2789 26.9572 37.35L24.75 38.1667L26.9572 38.9833C29.8516 40.0545 31.2987 40.59 32.3544 41.6456C33.4101 42.7013 33.9456 44.1485 35.0166 47.0427L35.8333 49.25L36.65 47.0427C37.7211 44.1485 38.2566 42.7013 39.3122 41.6456C40.368 40.59 41.8152 40.0545 44.7093 38.9833L46.9167 38.1667L44.7093 37.35C41.8152 36.2789 40.368 35.7434 39.3122 34.6878C38.2566 33.632 37.7211 32.1848 36.65 29.2906L35.8333 27.0833Z" fill="white"/>
<path d="M48.5 20.75L48.1499 21.696C47.6909 22.9364 47.4615 23.5566 47.009 24.009C46.5566 24.4615 45.9364 24.691 44.696 25.15L43.75 25.5L44.696 25.85C45.9364 26.309 46.5566 26.5385 47.009 26.991C47.4615 27.4434 47.6909 28.0636 48.1499 29.304L48.5 30.25L48.8501 29.304C49.3091 28.0636 49.5385 27.4434 49.991 26.991C50.4434 26.5385 51.0636 26.309 52.304 25.85L53.25 25.5L52.304 25.15C51.0636 24.691 50.4434 24.4615 49.991 24.009C49.5385 23.5566 49.3091 22.9364 48.8501 21.696L48.5 20.75Z" fill="white"/>
</g>
</g>
<defs>
<filter id="filter0_d_591_9761" x="0" y="0" width="78" height="78" filterUnits="userSpaceOnUse" color-interpolation-filters="sRGB">
<feFlood flood-opacity="0" result="BackgroundImageFix"/>
<feColorMatrix in="SourceAlpha" type="matrix" values="0 0 0 0 0 0 0 0 0 0 0 0 0 0 0 0 0 0 127 0" result="hardAlpha"/>
<feOffset dy="4"/>
<feGaussianBlur stdDeviation="2"/>
<feComposite in2="hardAlpha" operator="out"/>
<feColorMatrix type="matrix" values="0 0 0 0 0.216667 0 0 0 0 0.866667 0 0 0 0 0.0541667 0 0 0 0.04 0"/>
<feBlend mode="normal" in2="BackgroundImageFix" result="effect1_dropShadow_591_9761"/>
<feBlend mode="normal" in="SourceGraphic" in2="effect1_dropShadow_591_9761" result="shape"/>
</filter>
<filter id="filter1_f_591_9761" x="8.78326" y="-1.81641" width="61.1425" height="69.8164" filterUnits="userSpaceOnUse" color-interpolation-filters="sRGB">
<feFlood flood-opacity="0" result="BackgroundImageFix"/>
<feBlend mode="normal" in="SourceGraphic" in2="BackgroundImageFix" result="shape"/>
<feGaussianBlur stdDeviation="2" result="effect1_foregroundBlur_591_9761"/>
</filter>
<linearGradient id="paint0_linear_591_9761" x1="45.9369" y1="26.7647" x2="75.449" y2="43.8559" gradientUnits="userSpaceOnUse">
<stop stop-color="#25A81F" stop-opacity="0.65"/>
<stop offset="1" stop-color="#0D7C08"/>
</linearGradient>
<clipPath id="clip0_591_9761">
<rect x="4" width="70" height="70" rx="35" fill="white"/>
</clipPath>
</defs>
</svg>
