<svg width="20" height="20" viewBox="0 0 20 20" fill="none" xmlns="http://www.w3.org/2000/svg">
<g clip-path="url(#clip0_1597_11421)">
<path d="M1.66604 10.0669C1.66104 9.34862 2.42437 8.93695 3.01437 9.25445L3.09354 9.30278L5.32521 10.8061C6.13521 11.3519 5.63937 12.5919 4.71354 12.4786L4.61604 12.462L3.73021 12.2669C4.18046 13.5127 4.99149 14.5961 6.05991 15.379C7.12833 16.1619 8.40571 16.6089 9.72919 16.663C11.0527 16.7171 12.3623 16.3758 13.491 15.6827C14.6197 14.9895 15.5165 13.9759 16.0669 12.7711C16.1615 12.575 16.3291 12.4236 16.5339 12.3495C16.7387 12.2754 16.9643 12.2844 17.1625 12.3746C17.3608 12.4648 17.5158 12.629 17.5945 12.8321C17.6732 13.0351 17.6692 13.2609 17.5835 13.4611C15.9277 17.1028 11.8369 19.122 7.84437 18.0519C6.0829 17.58 4.52478 16.5435 3.40882 15.1012C2.29287 13.6589 1.68067 11.8905 1.66604 10.0669ZM2.41854 6.54362C4.07437 2.90195 8.16521 0.883616 12.1577 1.95278C13.9191 2.42455 15.4772 3.46093 16.5932 4.90307C17.7091 6.34521 18.3214 8.11352 18.336 9.93695C18.3419 10.6561 17.5777 11.0686 16.9885 10.7503L16.9085 10.702L14.6769 9.19862C13.8669 8.65278 14.3627 7.41278 15.2885 7.52612L15.386 7.54278L16.2719 7.73778C15.8216 6.49207 15.0106 5.40868 13.9422 4.62574C12.8738 3.8428 11.5964 3.39578 10.2729 3.3417C8.94942 3.28761 7.63982 3.6289 6.51108 4.32205C5.38234 5.0152 4.4856 6.0288 3.93521 7.23362C3.89152 7.33567 3.82788 7.42796 3.74803 7.50508C3.66818 7.58219 3.57372 7.64258 3.47021 7.68268C3.3667 7.72279 3.25622 7.74182 3.14526 7.73864C3.03429 7.73546 2.92508 7.71014 2.82404 7.66417C2.723 7.6182 2.63215 7.55251 2.55685 7.47094C2.48155 7.38938 2.4233 7.2936 2.38552 7.18921C2.34775 7.08483 2.33121 6.97395 2.33688 6.86308C2.34255 6.75222 2.37031 6.6436 2.41854 6.54362Z" fill="#667185"/>
</g>
<defs>
<clipPath id="clip0_1597_11421">
<rect width="20" height="20" fill="white"/>
</clipPath>
</defs>
</svg>
