<svg width="24" height="24" viewBox="0 0 24 24" fill="none" xmlns="http://www.w3.org/2000/svg">
<path d="M10.9193 2.86771C11.0293 2.67887 11.1869 2.52218 11.3764 2.41328C11.5659 2.30438 11.7807 2.24707 11.9993 2.24707C12.2178 2.24707 12.4326 2.30438 12.6221 2.41328C12.8116 2.52218 12.9692 2.67887 13.0793 2.86771L15.8743 7.66571L21.3023 8.84171C21.5158 8.8881 21.7134 8.98965 21.8754 9.13624C22.0374 9.28282 22.1582 9.46932 22.2257 9.67713C22.2932 9.88494 22.305 10.1068 22.26 10.3206C22.215 10.5344 22.1148 10.7327 21.9693 10.8957L18.2693 15.0367L18.8293 20.5617C18.8513 20.7793 18.816 20.9988 18.7267 21.1984C18.6374 21.398 18.4973 21.5707 18.3204 21.6993C18.1435 21.8278 17.9359 21.9077 17.7185 21.9309C17.5011 21.9542 17.2813 21.9199 17.0813 21.8317L11.9993 19.5917L6.91725 21.8317C6.71717 21.9199 6.49744 21.9542 6.28001 21.9309C6.06257 21.9077 5.85504 21.8278 5.67812 21.6993C5.50121 21.5707 5.36112 21.398 5.27182 21.1984C5.18253 20.9988 5.14716 20.7793 5.16925 20.5617L5.72925 15.0367L2.02925 10.8967C1.88348 10.7337 1.78301 10.5354 1.73787 10.3214C1.69272 10.1075 1.70449 9.88544 1.772 9.67746C1.8395 9.46949 1.96038 9.28286 2.12256 9.1362C2.28474 8.98955 2.48256 8.88801 2.69625 8.84171L8.12425 7.66571L10.9193 2.86771Z" fill="#25A81F"/>
</svg>
