<svg width="20" height="20" viewBox="0 0 20 20" fill="none" xmlns="http://www.w3.org/2000/svg">
<path fill-rule="evenodd" clip-rule="evenodd" d="M9.09938 2.39024C9.19108 2.23288 9.32245 2.1023 9.48036 2.01155C9.63828 1.9208 9.81724 1.87305 9.99938 1.87305C10.1815 1.87305 10.3605 1.9208 10.5184 2.01155C10.6763 2.1023 10.8077 2.23288 10.8994 2.39024L13.2285 6.38858L17.7519 7.36858C17.9298 7.40724 18.0945 7.49187 18.2295 7.61402C18.3645 7.73617 18.4652 7.89158 18.5214 8.06476C18.5777 8.23794 18.5875 8.42283 18.55 8.60101C18.5125 8.77919 18.429 8.94442 18.3077 9.08024L15.2244 12.5311L15.691 17.1352C15.7095 17.3165 15.68 17.4995 15.6056 17.6658C15.5312 17.8322 15.4144 17.9761 15.267 18.0832C15.1196 18.1903 14.9466 18.2569 14.7654 18.2762C14.5842 18.2956 14.4011 18.2671 14.2344 18.1936L9.99938 16.3269L5.76438 18.1936C5.59764 18.2671 5.41454 18.2956 5.23334 18.2762C5.05214 18.2569 4.8792 18.1903 4.73177 18.0832C4.58434 17.9761 4.4676 17.8322 4.39318 17.6658C4.31877 17.4995 4.2893 17.3165 4.30771 17.1352L4.77438 12.5311L1.69104 9.08108C1.56957 8.94526 1.48584 8.77996 1.44822 8.60168C1.4106 8.42339 1.42041 8.23835 1.47666 8.06504C1.53292 7.89173 1.63365 7.7362 1.7688 7.61399C1.90395 7.49178 2.0688 7.40716 2.24688 7.36858L6.77021 6.38858L9.09938 2.39024ZM9.99938 4.15608L8.07188 7.46608C7.99899 7.59101 7.90089 7.6994 7.78382 7.78434C7.66674 7.86927 7.53326 7.92889 7.39188 7.95941L3.64854 8.77024L6.20021 11.6261C6.39521 11.8444 6.48938 12.1344 6.46021 12.4252L6.07438 16.2361L9.57938 14.6911C9.71172 14.6328 9.85476 14.6027 9.99938 14.6027C10.144 14.6027 10.287 14.6328 10.4194 14.6911L13.9244 16.2361L13.5385 12.4252C13.5239 12.2813 13.5394 12.136 13.584 11.9984C13.6286 11.8608 13.7014 11.734 13.7977 11.6261L16.3502 8.77024L12.6069 7.95941C12.4655 7.92889 12.332 7.86927 12.2149 7.78434C12.0979 7.6994 11.9998 7.59101 11.9269 7.46608L9.99938 4.15608Z" fill="#667185"/>
</svg>
