<svg width="61" height="60" viewBox="0 0 61 60" fill="none" xmlns="http://www.w3.org/2000/svg">
<path opacity="0.4" d="M25.582 8.17853C27.5937 3.9405 33.4062 3.94049 35.418 8.17852L38.8947 15.5029C39.6936 17.1859 41.2378 18.3523 43.0241 18.6222L50.7983 19.7967C55.2967 20.4763 57.0928 26.2239 53.8378 29.5227L48.2123 35.224C46.9197 36.5339 46.3299 38.4213 46.635 40.271L47.963 48.3214C48.7314 52.9794 44.029 56.5316 40.0056 54.3323L33.0521 50.5315C31.4544 49.6582 29.5456 49.6582 27.9479 50.5315L20.9944 54.3323C16.971 56.5316 12.2686 52.9794 13.037 48.3214L14.365 40.2711C14.6701 38.4213 14.0803 36.534 12.7877 35.224L7.16219 29.5227C3.90717 26.2239 5.70332 20.4763 10.2017 19.7967L17.9759 18.6222C19.7622 18.3523 21.3064 17.1859 22.1053 15.5029L25.582 8.17853Z" fill="#98A2B3"/>
</svg>
